<svg xmlns="http://www.w3.org/2000/svg" width="1200" height="700">
  <rect x="20" y="20" width="1160" height="660" fill="#fff" stroke="#ccc"/>
  <text x="50" y="70" font-size="28" font-family="Arial" fill="#333">Faculty Dashboard</text>

  <rect x="50" y="110" width="760" height="220" fill="#fafafa" stroke="#ddd"/>
  <text x="70" y="150" font-size="16" fill="#333">Create New Event</text>
  <rect x="70" y="170" width="680" height="36" fill="#fff" stroke="#ccc"/>
  <text x="80" y="195" font-size="12" fill="#777">Event Title</text>
  <rect x="70" y="210" width="320" height="36" fill="#fff" stroke="#ccc"/>
  <text x="80" y="235" font-size="12" fill="#777">Date & Time</text>
  <rect x="70" y="250" width="320" height="36" fill="#fff" stroke="#ccc"/>
  <text x="80" y="275" font-size="12" fill="#777">Venue</text>
  <rect x="560" y="250" width="160" height="36" fill="#eee" stroke="#bbb"/>
  <text x="600" y="277" font-size="12" fill="#333">Create Event</text>

  <text x="50" y="360" font-size="16" fill="#333">Your Events</text>
  <rect x="50" y="380" width="760" height="240" fill="#fff" stroke="#eee"/>
  <text x="70" y="410" font-size="12" fill="#666">• Sample Event 1 — Manage</text>
  <text x="70" y="440" font-size="12" fill="#666">• Sample Event 2 — Manage</text>

  <!-- Right column: attendance quick tools -->
  <rect x="840" y="110" width="320" height="510" fill="#f8f8f8" stroke="#eee"/>
  <text x="860" y="150" font-size="14" fill="#333">Attendance Tools</text>
  <rect x="860" y="180" width="260" height="120" fill="#fff" stroke="#ddd"/>
  <text x="880" y="215" font-size="12" fill="#666">Generate QR Code</text>
  <text x="880" y="245" font-size="12" fill="#666">Mark Manual Attendance</text>
</svg>